<?xml version="1.0" encoding="UTF-8"?>
<svg id="Layer_2" xmlns="http://www.w3.org/2000/svg" xmlns:xlink="http://www.w3.org/1999/xlink" viewBox="0 0 82.52 58.42">
  <defs>
    <style>
      .cls-1 {
        fill: none;
      }

      .cls-2 {
        clip-path: url(#clippath);
      }
    </style>
    <clipPath id="clippath">
      <rect class="cls-1" width="82.52" height="58.42"/>
    </clipPath>
  </defs>
  <g id="Layer_2-2" data-name="Layer_2">
    <g class="cls-2">
      <g>
        <path d="M.08,53.81h82.52c0,1.5,0,2.99,0,4.49,0,.14-.04.21-.25.18-.04,0-.08,0-.12,0-27.26,0-54.52,0-81.78,0-.32,0-.38-.06-.38-.27.01-1.47,0-2.94,0-4.4ZM11.59,55.33c-.38,0-.65.15-.69.36-.05.28.18.4.53.46.13.02.27.04.4.07.14.03.24.1.22.22-.01.11-.12.17-.26.19-.25.04-.48.02-.6-.16-.07-.1-.17-.15-.29-.1-.16.06-.03.16.02.22.17.22.66.31,1.06.2.26-.07.4-.19.4-.4,0-.19-.15-.31-.39-.37-.18-.04-.37-.07-.56-.11-.15-.03-.24-.09-.23-.21.01-.12.13-.17.27-.19.22-.03.42,0,.52.16.07.1.19.13.3.07.1-.06,0-.15-.04-.21-.15-.17-.39-.23-.67-.23ZM3.25,56.56c-.06-.07-.09-.09-.11-.13-.16-.32-.32-.64-.46-.96-.05-.11-.13-.18-.29-.14-.16.04-.04.13-.01.19.19.38.39.77.58,1.15.05.1.1.17.28.17.18,0,.23-.07.28-.17.19-.38.38-.75.56-1.13.03-.07.18-.17,0-.22-.19-.06-.25.05-.3.16-.16.35-.33.69-.52,1.07ZM17.13,56.14c0-.22,0-.41,0-.6,0-.09.06-.22-.17-.21-.21,0-.13.13-.13.2,0,.32-.02.64,0,.96,0,.12-.12.32.12.34.31.02.13-.2.18-.31.02-.06.03-.12.12-.14.1-.02.13.05.18.09.09.09.18.17.26.26.1.11.22.15.41.06-.18-.18-.41-.33-.51-.53-.13-.26.41-.29.46-.53-.45-.05-.53.3-.92.4ZM4.05,56.34c.01.18.13.37.44.46.29.08.57.05.79-.11.07-.05.19-.12.09-.19-.08-.06-.2-.02-.28.05-.19.15-.4.15-.61.02-.08-.05-.15-.12-.11-.2.05-.08.16-.04.25-.05.19,0,.38-.01.57,0,.25.02.27-.08.23-.21-.06-.24-.36-.39-.72-.37-.4.02-.68.25-.67.6ZM9.66,56.3c0-.33-.3-.57-.74-.57-.42,0-.74.23-.75.54-.01.32.31.57.75.57.43,0,.74-.22.74-.54ZM15.03,56.28c0-.32-.3-.54-.73-.55-.44,0-.76.23-.76.56,0,.31.31.54.73.55.44,0,.76-.23.76-.56ZM15.18,56.29c0,.23.14.43.48.52.29.08.57.04.79-.13.08-.06.2-.15.1-.22-.11-.07-.21,0-.29.08-.12.13-.3.16-.5.09-.22-.07-.26-.21-.25-.37,0-.15.08-.27.28-.33.21-.06.38-.02.49.12.06.08.17.13.27.07.12-.07,0-.14-.05-.2-.19-.19-.47-.23-.77-.18-.37.07-.51.27-.53.54ZM6.36,55.73c-.44,0-.75.23-.75.57,0,.32.31.54.74.54.29,0,.5-.09.63-.27.03-.04.06-.1-.02-.12-.04-.01-.12-.02-.16,0-.06.03-.1.09-.16.13-.19.13-.4.12-.58,0-.18-.12-.18-.44,0-.56.19-.13.39-.14.58,0,.1.07.19.23.33.11.11-.09-.07-.21-.19-.28-.12-.07-.26-.1-.42-.1ZM69.56,56.83c.17-.17.09-.31.11-.44.02-.11.04-.23.24-.22.17,0,.18.12.2.22.02.13-.07.28.11.42.12-.13.08-.25.08-.36,0-.39-.04-.42-.6-.36-.1.01-.16-.05-.23-.04-.21,0-.52-.1-.62.07-.09.17-.02.38-.02.58,0,.04.03.08.1.08.06,0,.1-.03.1-.07,0-.12,0-.23.01-.35,0-.1.05-.18.2-.19.18,0,.22.09.23.2.01.14-.04.28.08.47ZM71.99,55.8c-.1,0-.13.06-.18.1-.15.14-.29.28-.44.42-.05.05-.14.11-.1.18.05.08.17.03.25.05.12.02.28-.05.37.06.04.06-.01.21.15.14.12-.05.24-.27.22-.28-.29-.16-.1-.38-.15-.56-.02-.05,0-.12-.12-.12ZM76.41,56.78c.43,0,.6-.18.4-.47-.04-.06-.06-.09,0-.15.12-.11.09-.22-.07-.3-.21-.1-.44-.11-.65,0-.16.08-.2.19-.07.3.08.07.04.1-.02.17-.21.25-.02.45.4.45ZM80.24,56.51c-.33-.19-.15-.43-.21-.63-.05-.16-.17-.09-.25-.02-.19.17-.36.34-.54.51-.11.11-.08.17.13.17.19,0,.47-.08.48.18,0,.05.1.05.13.03.1-.08,0-.24.26-.25ZM74.74,56.5c-.29-.07-.33-.16-.32-.27.01-.12.03-.24,0-.35-.05-.15-.17-.09-.25-.01-.18.17-.36.34-.53.51-.12.12-.05.17.14.17.2,0,.46-.07.47.19,0,.04.1.05.13.02.08-.09.01-.24.36-.26ZM72.68,56.11c.15-.36.48-.09.73-.09-.21-.23-.42-.28-.68-.18-.3.12-.41.52-.2.76.16.18.39.23.67.14.14-.05.22-.14.24-.25.05-.29-.2-.42-.77-.37ZM7.8,56.84c.05,0,.15.02.2-.04.02-.02,0-.1,0-.1-.5-.08-.26-.36-.31-.56-.03-.12-.02-.24.23-.23.09,0,.13-.09.1-.09-.25-.05-.3-.23-.47-.33-.04-.02-.12.02-.15.07-.04.06-.05.37-.02.45.02.05.01.12.01.17,0,.15,0,.29,0,.44,0,.17.15.24.41.23ZM13.19,56.84s.17.03.19-.07c.01-.07-.05-.09-.14-.11-.38-.09-.14-.31-.18-.47-.03-.1-.11-.27.19-.28.16,0,.17-.15.09-.15-.3,0-.24-.22-.37-.27-.32-.12-.1.25-.36.24-.01,0-.03,0-.04,0-.13.06-.13.14,0,.16.23.04.17.15.17.25,0,.15,0,.29,0,.44,0,.18.15.26.43.25ZM61.85,56.78c.14-.01.36-.05.39-.25.03-.19-.14-.26-.36-.29-.05,0-.11-.02-.16-.03-.15-.02-.3-.06-.22-.18.07-.12.24-.12.39-.06.06.02.09.07.15.1.04.02.11.03.15.01.06-.02.04-.07.01-.1-.13-.16-.33-.19-.57-.17-.21.02-.36.11-.37.27,0,.17.17.23.37.26.08.01.16.03.24.05.1.02.17.07.16.15-.01.08-.11.11-.2.13-.13.02-.24,0-.34-.07-.07-.05-.12-.17-.23-.06-.07.07.04.14.13.19.11.06.24.09.47.08ZM74.81,56.49c.16.31.54.37.79.17.21-.16.23-.58.03-.74-.17-.14-.39-.18-.63-.09-.23.09-.31.23-.22.39.1.18.32.23.58.18.06-.01.11-.06.19-.02-.14.32-.21.33-.74.1ZM9.9,56.28c0,.15,0,.29,0,.44,0,.06,0,.12.11.12.12,0,.18-.03.18-.11,0-.08,0-.15,0-.23,0-.24-.06-.51.44-.55.1,0,.1-.09.08-.14-.02-.09-.12-.05-.2-.05-.11,0-.19.12-.29.07-.4-.21-.33.02-.34.17,0,.1,0,.19,0,.29ZM56.85,56.43c.22,0,.38,0,.54,0,.24.01.25-.09.18-.2-.09-.15-.26-.23-.49-.2-.29.04-.41.18-.4.38,0,.2.13.34.42.37.23.02.39-.05.46-.24-.26.09-.51.23-.7-.11ZM66.09,56.77c-.26-.25-.64-.47,0-.72-.37-.06-.4.21-.67.21,0-.12,0-.23,0-.35,0-.05,0-.1-.09-.11-.12-.01-.12.06-.12.11,0,.18-.02.37,0,.55.01.1-.11.28.1.29.2.01.05-.18.14-.25.01-.01.04-.02.07-.03.22.05.19.31.57.29ZM78.17,56.1c.09.01.13,0,.16-.04.12-.14.29-.2.47-.07.19.13.02.23-.11.32-.15.11-.33.21-.49.32-.08.06-.13.16.05.16.27,0,.55.05.85-.04-.18-.14-.43-.02-.6-.12.17-.13.34-.24.48-.37.12-.11.12-.24-.02-.35-.14-.11-.34-.14-.53-.09-.18.05-.34.12-.27.29ZM56.04,56.62c-.15-.29-.25-.5-.36-.71-.03-.05-.06-.12-.16-.1-.13.02-.06.09-.04.14.12.25.26.49.38.73.03.06.07.1.17.11.12,0,.16-.04.2-.11.12-.24.25-.47.36-.71.02-.05.14-.13-.02-.16-.14-.03-.15.07-.18.13-.11.2-.21.41-.35.69ZM68.72,56.4c0-.21-.23-.39-.52-.37-.33.02-.48.16-.47.39,0,.22.17.35.48.36.28.01.51-.17.5-.38ZM59.97,56.03c-.29,0-.5.16-.49.38,0,.22.15.35.46.37.29.02.51-.15.52-.36,0-.21-.21-.39-.49-.39ZM63.47,56.78c.31,0,.56-.18.55-.38,0-.21-.24-.39-.52-.37-.31.01-.47.15-.48.36,0,.23.15.36.44.39ZM67.61,56.33c-.11-.23-.28-.33-.55-.29-.33.04-.43.22-.39.44.03.21.21.31.5.31.23,0,.37-.09.37-.27-.19.08-.34.25-.57.09-.14-.1-.15-.23-.04-.35.24-.26.42.03.7.07ZM65.06,56.35c-.13-.26-.31-.35-.58-.31-.31.05-.4.21-.37.42.03.21.2.32.48.32.23,0,.41-.07.41-.29-.22.05-.37.3-.61.1-.14-.12-.14-.26,0-.37.25-.19.39.05.67.13ZM58.71,56.33c-.12-.23-.28-.34-.56-.3-.33.05-.43.22-.39.44.03.2.21.31.5.31.23,0,.36-.09.37-.26-.2.06-.34.25-.58.08-.14-.1-.16-.23-.04-.35.24-.26.42.02.71.08ZM76.99,55.85c.27.12.54.01.78.09-.09.3-.37.53-.44.86.31-.09.31-.27.4-.41.11-.18.41-.41.25-.55-.18-.15-.58-.05-.89-.04-.01,0-.02.01-.09.04ZM59.37,56.75c-.24-.16-.31-.47-.13-.59.05-.03.18-.09.09-.1-.2-.01-.13-.25-.33-.18-.1.04-.21.23-.21.23.27.13.1.32.14.48.05.19.19.23.44.16ZM62.93,56.75c-.25-.16-.31-.47-.13-.6.05-.04.16-.1.08-.1-.22,0-.11-.27-.33-.18-.1.04-.14.16-.21.24.27.11.13.29.15.44.03.21.17.26.44.19ZM60.58,56.37c0,.08-.01.14,0,.2.02.07-.08.2.12.2.15,0,.08-.12.09-.19.02-.11-.03-.23.07-.33.07-.07.33-.04.25-.18-.07-.11-.28-.01-.39-.01-.31.01-.06.23-.14.32ZM70.4,56.98s.08.03.13.04c.26-.41.44-.83.6-1.26-.05-.01-.09-.02-.14-.03-.2.42-.4.84-.59,1.25Z"/>
        <path d="M39.35,19.45c.26.18.21.43.24.65.03.23-.01.47.09.69.06.13.15.17.34.14.2-.03.41-.09.61-.07.43.05.46-.1.54-.35.13-.45.21-.84-.08-1.29-.28-.42.12-.9.72-1.12.65-.24,1.48-.15,1.9.2.22.18.32.39.24.62-.05.14.01.21.19.27.56.19.98.5,1.25.9.05.07.09.13.23.13,1.09.05,1.62.57,1.3,1.3-.32.74-1.43,1-2.31.53-.15-.08-.24-.09-.39-.03-.2.08-.44.12-.67.13-.24,0-.31.07-.27.23.11.42.02.84-.16,1.24-.12.26.04.33.34.37.41.05.79-.03,1.17-.1.62-.12,1.22-.14,1.77.15.11.06.27.11.26.25-.2,0-.28-.12-.4-.19-.53-.3-.95-.35-1.43-.01-.61.43-1.18.45-1.83.09-.18-.1-.5-.14-.57-.26-.08-.13.21-.27.3-.42.06-.1.17-.18.13-.32-.74.33-1.52.53-2.39.51.37-.09.75-.17,1.12-.27.39-.1.75-.24,1.06-.43.35-.22.41-.49.18-.7-.24-.21-.62-.24-.99-.03-.73.42-1.38.91-1.99,1.41.07.14.25-.02.31.1-.26.06-.51.11-.82.18.22-.46,0-.89,0-1.32,0-.43.13-.84.31-1.28-.51.14-.74.42-1.02.66-.15-.05-.19-.17-.3-.23-.2-.12-.16-.21.04-.29.17-.07.2-.17.21-.3.04-.52-.1-1-.5-1.45-.05-.05-.13-.1-.05-.24.39.37.64.74.7,1.17.02.15.03.31.05.47,0,.05.03.1.12.09.06,0,.1-.04.09-.08-.13-.48.25-.88.4-1.32.04-.13,0-.25,0-.38h0ZM43.85,20.33c-.35-.12-.64-.26-.63-.57,0-.07-.04-.16-.17-.12-.26.08-.67.09-.75.26-.1.24-.19.54-.03.78.17.24.47.42.79.58.11.05,1.22,0,1.31-.07.03-.02.05-.05.07-.07.14-.2.28-.41.44-.64-.21-.01-.39-.02-.56-.04-.17-.03-.4.06-.5-.12.11-.08.49.05.36-.13-.16-.23-.43-.44-.78-.6-.1.35.21.53.43.74ZM39.5,22.98c0,.13,0,.25,0,.38,0,.05,0,.1.08.12.09.02.12-.03.16-.07.18-.17.37-.34.52-.52.32-.38.72-.73.93-1.16.11-.23.02-.42-.28-.55-.31-.13-.59-.06-.81.12-.11.09-.2.21-.26.33-.24.44-.35.89-.35,1.36ZM42.31,18.58c-.09.05-.18.1-.26.15-.26.15-.16.31-.03.47.14.17.42.12.54.05.19-.11.32-.13.5-.03.05.03.1.03.15,0,.05-.03.07-.08.03-.1-.38-.17.01-.38-.05-.57-.02-.06.04-.1-.08-.15-.21-.09-.43-.13-.67-.16-.06,0-.15-.12-.17-.03-.04.14-.28.18-.26.31.02.14.21,0,.3.07ZM44.98,21.08c0,.14.25.18.22.28-.1.26.17.26.37.29.19.03.39.04.37-.17,0-.01.09-.11.21-.09,0,.06-.07.14.01.17.25.08.3-.21.57-.16-.35-.11-.09-.37-.36-.55-.22-.15-.35-.05-.49-.06-.27-.02-.07.16-.15.3-.06-.17-.19-.25-.31-.34-.05-.04-.11-.06-.18-.02-.05.03-.07.07-.03.1.33.26,0,.25-.24.27ZM42.96,21.41s-.05-.06-.09-.09c-.19-.12-.39-.24-.57-.37-.09-.06-.16-.04-.26-.01-.49.14-.54.29-.2.58.16.14.36.24.57.32.08.03.19.07.25,0,.1-.14.14-.29.29-.42ZM41.96,20.93c.15-.29.12-.5.06-.71-.02-.08-.17-.08-.28-.06-.13.02-.13.09-.1.16.09.18.18.35.32.61Z"/>
        <path d="M30.96,46.19s.06.04.07.05q.31.5.99.23s.02,0,.04-.01c.24-.11.58-.17.7-.34.17-.23-.28-.32-.36-.5-.02-.04-.06-.07.01-.13.14.1.29.2.43.29.15.1.28.22.53.15.07-.02.17,0,.2.07.03.06.03.12-.05.16-.32.14-.14.23.06.33.81.41,1.24.97,1.3,1.68.03.32,0,.64.09.96.04.13-.03.15-.2.11-.4-.1-.81-.18-1.21-.28-1.02-.26-1.49-.87-1.85-1.53-.12-.23-.16-.4-.59-.26-.18.06-.39-.07-.25-.18.28-.22.09-.41.05-.62-.01-.05-.02-.1.06-.16ZM34.54,48.71c-.03-.23-.05-.46-.08-.7,0-.08-.04-.16-.18-.16-.1,0-.15.05-.16.11-.03.31-.26.45-.7.44-.1,0-.19.03-.2.11,0,.07.07.11.14.13.32.08.65.15.97.23.23.05.21-.06.2-.16Z"/>
        <path d="M35.07,26.83c-.06.31-.09.55-.15.79-.05.19.06.21.26.14.29-.1.6-.14.89-.22.35-.1.64.09.98.06.13-.01.16.13.04.2-.08.05-.19.08-.29.1-.8.2-1.45.55-2,.99-.21.17-.33.2-.63.05-.53-.25-.68-.47-.43-.94.29-.56.49-1.16.74-1.74.03-.06.03-.16.15-.15.13,0,.15.1.14.18-.02.22.44.35.29.54Z"/>
        <path d="M37.02,25.53c0,.25.06.44.52.38-.05.04-.06.06-.08.07-.12.08-.43.09-.32.24.08.11.31.21.54.2.45-.02.89-.09,1.34-.06.11,0,.26-.04.3.09.04.11-.02.19-.15.25-.39.18-.8.34-1.28.38-.73.07-1.47.15-2.18.3-.27.06-.33,0-.31-.19.04-.54.01-1.09-.06-1.63-.04-.31.1-.61.25-.91.04-.08.1-.14.24-.13.12,0,.21.03.24.13.09.38.21.76.27,1.15.03.17.21.02.28.11.07.09.2.01.24-.06.06-.11.1-.22.15-.33ZM37.89,26.53v.02c-.08,0-.16,0-.25,0-.49,0-.97.03-1.34.3-.09.06-.21.12-.14.22.06.09.19.05.3.04.52-.05,1.03-.1,1.54-.17.19-.02.38-.06.55-.11.11-.03.24-.09.21-.19-.03-.11-.17-.11-.3-.11-.19,0-.38,0-.58,0ZM36.23,26.11c-.07-.32-.15-.68-.24-1.03-.02-.08-.07-.18-.22-.18-.15,0-.19.09-.23.18-.02.05-.03.09-.04.14-.06.48.19.96.12,1.44,0,.06.04.12.13.13.09,0,.16-.03.2-.08.16-.17.26-.36.28-.6Z"/>
        <path d="M24.2,5.3c.46.11.73,0,.96-.3.28.73.65,1.37.8,2.06.05.24-.19.4-.49.43-.28.04-.43-.12-.48-.31-.16-.62-.45-1.22-.8-1.87Z"/>
        <path d="M13.42,13.22c.43-.07.59-.27.62-.42.62.4,1.3.83,1.96,1.27.18.12.21.29.11.46-.14.24-.48.3-.71.11-.59-.5-1.24-.96-1.98-1.41Z"/>
        <path d="M23.65,5.86c.4,0,.64.12.73.35.11.29.21.58.32.87.03.1.07.21-.07.27-.15.06-.34.11-.51.04-.61-.23-1.1-.52-1.25-1.04-.06-.21-.02-.31.25-.37.19-.04.39-.09.53-.12Z"/>
        <path d="M13.72,13.79c.13,0,.24.04.33.1.35.24.7.49.99.78.11.11.1.16-.08.25-.49.24-.94.25-1.41-.01-.2-.11-.52-.04-.64-.29-.17-.37.25-.84.8-.81Z"/>
        <path d="M55.38,41.13c-.41,0-.67.05-.81.26-.08.12-.18.04-.25-.02-.53-.43-1.11-.83-1.73-1.2-.27-.16-.18-.39.17-.46.22-.05.44-.03.62.08.69.39,1.26.88,2,1.34Z"/>
        <path d="M66.47,30.26c-.4.17-.49.38-.36.68-.92-.16-1.8-.19-2.68-.25-.2-.01-.28-.11-.27-.25.02-.19.17-.34.44-.37.24-.03.49-.02.74,0,.68.05,1.36.12,2.13.19Z"/>
        <path d="M32.37,31.23c-.31.03-.34.26-.55.38-.04-.17.22-.27.2-.46-.26.05-.27.21-.35.33-.09.13-.16.26-.28.47-.05-.25.05-.41.12-.56.08-.18.31-.34.11-.54-.02-.02,0-.07.02-.08.48-.22.33-.63.58-.92.18-.22.34-.44.51-.66.1-.14.25-.13.42-.07.18.07.18.16.11.29-.07.14-.17.17-.33.09-.16-.08-.25-.02-.33.07-.24.28-.41.57-.43.9-.01.22.15.33.42.42.28.09.5.06.7-.11.26-.22.43-.47.58-.73.07-.13-.03-.2-.11-.29-.07-.08-.14-.21,0-.26.16-.06.36-.01.5.07.12.08.09.17,0,.26-.37.37-.69.79-.91,1.19-.23.42-.63.77-.8,1.2-.05-.28.26-.51.19-.81-.2.08-.12.24-.26.32-.12-.16.15-.35-.11-.49.1,0,.23.06.28-.05.04-.1-.06-.17-.17-.21-.09-.03-.24-.07-.29.01-.1.13.12.17.2.25Z"/>
        <path d="M28.94,14.89c0,.13-.1.14-.25.11-.87-.2-1.56-.59-2.2-1.04-.11-.08-.07-.16.02-.23.57-.47.56-.64,1.23-.04.37.32.71.66,1.06,1,.07.06.13.12.14.21Z"/>
        <path d="M22.82,20.2c-.56,0-1.09-.08-1.62-.18-.25-.05-.35-.14-.27-.32.08-.18.03-.43.23-.55.28-.16.48.1.72.17.59.17,1.17.38,1.75.58.09.03.23.07.21.16-.02.09-.17.09-.27.1-.24.02-.49.03-.74.04Z"/>
        <path d="M63.74,30.89c.46.02.78.03,1.09.06.5.04.66.22.57.62-.09.4-.26.51-.78.44-.61-.08-.95-.39-1.19-.75-.17-.25.02-.38.31-.37Z"/>
        <path d="M22.42,4.97c.01-.28.15-.51.39-.72.15-.13.26-.11.39,0,.41.37.61.8.75,1.24.03.09-.04.13-.14.15-.04,0-.08,0-.12.01-.35.05-.85.31-1,.18-.23-.2-.19-.56-.27-.86Z"/>
        <path d="M51.92,40.7c-.05-.15.18-.22.41-.3.23-.09.32.06.45.13.25.15.49.31.73.47.23.15.27.33.08.52-.26.26-.57.35-.88.27-.54-.12-.7-.6-.78-1.09Z"/>
        <path d="M44.98,35.15c0-.22.02-.44.11-.66.02-.06.04-.12.14-.13.09,0,.16.04.18.09.21.5.67.93.87,1.43.13.32.12.34-.33.39-.09.01-.19.03-.28.04-.31.05-.48,0-.54-.25-.07-.31-.17-.61-.15-.92Z"/>
        <path d="M11.75,12.61c.23.04.4.13.58.22.06.03.11.06.17.08.96.51.96.61.12,1.19-.08.06-.14.11-.27.06-.41-.16-.97-1.04-.83-1.36.04-.09.05-.2.24-.19Z"/>
        <path d="M52.92,29.31c.89.2,1.61.49,2.27.86.22.12.19.22.01.36-.51.41-.5.41-1.07.05-.52-.33-.98-.7-1.22-1.26Z"/>
        <path d="M54.78,42.78c-.63-.03-1.09-.3-1.54-.56-.13-.08-.16-.18.02-.26.12-.05.22-.11.33-.17q.5-.28.96.06c.22.16.42.34.58.53.08.1.19.2.09.32-.1.12-.28.11-.45.09Z"/>
        <path d="M66.01,31.13c.52.05,1.02.11,1.48.26.25.08.28.18.11.33-.08.07-.15.14-.27.17-.51.16-1.04.22-1.6.13-.07-.01-.2-.02-.18-.09.06-.25.14-.49.22-.73.03-.08.16-.06.23-.06Z"/>
        <path d="M30.14,16.77c-.55-.27-1.1-.52-1.61-.8-.31-.17-.05-.38.04-.55.1-.18.31-.1.48-.05.86.23,1.23.71,1.08,1.41Z"/>
        <path d="M26.07,21.22c-.63-.05-1.25-.11-1.87-.16-.46-.03-.35-.3-.4-.49-.06-.22.23-.2.42-.23.78-.11,1.51.23,1.86.88Z"/>
        <path d="M28.36,15.38c-.05.1-.11.23-.19.35-.05.08-.14.07-.24.03-.41-.17-.82-.34-1.23-.52-.06-.03-.11-.09-.14-.14-.14-.23-.23-.48-.43-.69-.05-.06-.06-.14.02-.19.07-.04.13,0,.18.04.54.38,1.16.68,1.85.91.1.04.19.08.18.21Z"/>
        <path d="M25.48,12.46c.49,0,.87.13,1.15.4.15.14.24.29.05.45-.18.14-.22.43-.59.37-.28-.05-.51-.19-.59-.43-.06-.18-.2-.36-.28-.54-.08-.16,0-.27.26-.26Z"/>
        <path d="M22.74,21.06c-.72.12-1.17-.32-1.73-.6-.06-.03-.1-.07-.07-.13.04-.08.13-.05.21-.03.69.13,1.39.19,2.11.17.44-.01.35.24.39.41.05.2-.19.17-.36.17-.15,0-.3,0-.55,0Z"/>
        <path d="M43.66,32.93c.61.17.99.42,1.18.8.11.23.02.46-.14.63-.13.14-.43.03-.65,0-.2-.02-.24-.13-.26-.23-.05-.39-.08-.78-.13-1.21Z"/>
        <path d="M50.59,28.88c.8-.22,1.58-.02,1.93.48.09.13.18.25-.06.34-.24.09-.47.28-.75.06-.08-.06-.17-.12-.25-.19-.29-.23-.57-.46-.86-.7Z"/>
        <path d="M44.79,36.34c-.48-.18-.63-.48-.92-.69-.22-.16-.11-.37-.12-.56,0-.07,0-.14,0-.2,0-.41.13-.47.68-.33.12.03.2.07.18.16-.12.53.01,1.05.18,1.62Z"/>
        <path d="M54.35,31.07c-1.12.04-1.83-.26-2.24-.9-.08-.13.01-.19.15-.22.19-.04.38-.28.59-.05.39.44.88.81,1.5,1.17Z"/>
        <path d="M20.77,19.41c-.03.16.07.36-.18.45-.27.09-.54,0-.76-.12-.25-.15-.54-.26-.71-.47-.12-.15-.05-.21.13-.26.44-.11.89,0,1.33,0,.23,0,.19.24.2.4Z"/>
        <path d="M46.62,37.03c0,.22.04.5-.25.57-.27.07-.45-.2-.63-.35-.19-.16-.45-.3-.41-.54.01-.08-.01-.16.11-.2.3-.1.64-.11.93-.05.24.06.26.28.26.45,0,.04,0,.08,0,.12Z"/>
        <path d="M29.7,43.71c.2.12.22.27.27.42.05.18.18.28.46.19.05-.02.11-.02.16-.03.66-.15.67-.17.41-.61-.06-.1-.16-.2-.11-.36.23.13.27.32.42.46.09.08.12.19.3.22.31.06.22.18.05.28-.28.17-.7.21-.88.47,0,.01-.03.02-.05.03-.21-.33-.51,0-.77-.05-.17-.04-.4-.07-.3-.19.24-.25.03-.49.04-.73,0-.04,0-.07,0-.11Z"/>
        <path d="M30.83,17.58c-.05.12-.19.19-.32.25-.12.05-.21-.02-.28-.08-.54-.44-1.15-.82-1.8-1.19-.08-.05-.19-.1-.1-.19.08-.09.19-.05.29,0,.66.33,1.32.65,1.98.98.11.05.21.13.23.23Z"/>
        <path d="M32.9,18.53c-.77-.4-1.47-.84-2.11-1.34-.24-.19-.29-.36-.29-.79.92.64,1.7,1.36,2.39,2.13Z"/>
        <path d="M24.62,21.37c.74.06,1.47.11,2.2.19.21.02.43.06.33.3-.1.24-.28.21-.52.14-.67-.18-1.35-.3-2.06-.37-.14-.01-.35-.02-.33-.16.03-.14.24-.08.37-.1Z"/>
        <path d="M29.48,21.8c-.92-.08-1.82-.24-2.7-.48-.26-.07-.4-.23-.53-.4-.03-.04-.07-.09,0-.13.04-.03.1-.02.15,0,1.04.31,2.12.56,3.08,1.01Z"/>
        <path d="M23.44,3.99c1.21.02,1.45.31,1.48.84,0,.14,0,.29-.24.33-.21.04-.36-.06-.49-.17-.05-.04-.09-.1-.13-.15-.2-.27-.4-.55-.62-.86Z"/>
        <path d="M56.31,31.45c-.35-.12-.82-.03-1.16-.26-.2-.13-.26-.24-.04-.38.12-.08.26-.15.36-.24.12-.1.33-.07.36-.04.23.23.67.33.79.63.07.19,0,.28-.31.29Z"/>
        <path d="M11.98,12.36c.77-.38,1.33-.32,1.71.17.09.12.17.26.03.38-.16.13-.37.1-.56.03-.42-.16-.79-.37-1.17-.57Z"/>
        <path d="M43.38,33.88c0,.1.02.22-.18.22-.16,0-.17-.1-.18-.19-.09-.47-.23-.93-.46-1.38-.07-.14-.12-.28.18-.34.29-.06.43.03.45.21.07.49.13.98.19,1.47Z"/>
        <path d="M50.99,28.54c-.46.12-.82.08-1.18-.11-.64-.34-1.24-.7-1.8-1.1,1.04.33,2.04.71,2.98,1.22Z"/>
        <path d="M35.14,20.34c1.16.97,2.34,1.87,3.31,2.92-.3.04-.59-.01-.9-.06.34-.07.24-.21.11-.34-.73-.74-1.43-1.49-2.25-2.19-.1-.09-.25-.15-.27-.34Z"/>
        <path d="M51.3,29.89c-.02.1-.07.16-.21.11-.06-.02-.12-.05-.16-.09-.49-.34-1.01-.66-1.59-.92-.18-.08-.26-.15-.1-.3.15-.14.29-.21.5-.07.55.37,1.01.79,1.51,1.19.03.02.04.05.05.07Z"/>
        <path d="M42.97,30.68c.5.68,1.06,1.34,1.22,2.15-.35-.09-.57-.21-.68-.4-.3-.56-.47-1.15-.55-1.75Z"/>
        <path d="M32.39,22.61c1.71.43,3.45.82,5.06,1.46-.09.09-.24.12-.37.15-.15.04-.33.16-.34-.1,0-.11-.21-.14-.34-.19-1.26-.44-2.48-.92-3.8-1.26-.08-.02-.15-.05-.22-.07Z"/>
        <path d="M66.86,30.37c.63,0,1.04.29,1.01.68,0,.11-.06.16-.23.12-.3-.08-.6-.13-.9-.21-.23-.06-.51-.14-.45-.36.06-.24.4-.19.57-.23Z"/>
        <path d="M31.97,33.36c-.07.15-.14.3-.2.46-.06.15-.32.3.02.47.14.07.01.2-.17.21-.54.02-1.04-.07-1.47-.3-.17-.09-.19-.26.05-.28.3-.03.29-.16.32-.3.03-.16.09-.32.28-.44-.04.22-.08.44-.12.66-.03.16.06.25.28.3.23.05.37-.01.47-.15.15-.21.31-.43.46-.64.02,0,.05.01.07.02Z"/>
        <path d="M55.71,42.56c-.3-.32-.56-.59-.81-.87-.1-.11-.12-.24.02-.35.15-.12.32-.07.48-.01.59.2.72.47.46,1-.03.06-.08.12-.15.23Z"/>
        <path d="M30.15,34.9c.03.24-.1.44-.26.63-.1.12-.07.2.12.24.12.03.23.06.35.08.51.09.57.06.58-.3,0-.13,0-.25.12-.37.05.3.04.59.18.88.05.1-.14.16-.28.16-.5.02-.98-.06-1.42-.24-.16-.06-.26-.17-.1-.28.33-.23.53-.51.71-.81Z"/>
        <path d="M40.04,25.38c.81,1.06,1.32,2.19,1.88,3.31-.41-.68-.85-1.36-1.32-2.02-.14-.19-.27-.38-.4-.57-.05-.07-.09-.14-.17-.2-.31-.24-.31-.23,0-.51Z"/>
        <path d="M29.37,22.59c.15-.08.24-.04.32-.02.11.03.23.09.34.02.09-.06.04-.13-.02-.18-.09-.09-.17-.24-.37-.19-.73.19-1.4-.03-2.08-.14-.11-.02-.31-.03-.27-.17.04-.14.2-.09.34-.07.64.1,1.28.2,1.94.21.19,0,.44.02.52.18.08.15.2.36,0,.46-.24.13-.46-.05-.73-.11Z"/>
        <path d="M45.71,26.28c-1.14-.49-2.34-.9-3.53-1.32-.19-.06-.37-.18-.61-.08-.14.06-.12-.03-.14-.08-.06-.11-.09-.22-.05-.36,1.57.48,2.92,1.2,4.33,1.83Z"/>
        <path d="M32.29,19.14c.08.04.16.07.24.11.09.04.11.18.28.12.1-.04.12-.13.12-.21,0-.1-.07-.19-.22-.22-.76-.13-1.21-.57-1.78-.88-.09-.05-.26-.13-.13-.24.15-.12.26,0,.38.06.53.29.97.65,1.59.86.19.06.38.18.32.37-.05.15-.09.35-.31.37-.28.03-.36-.2-.48-.35Z"/>
        <path d="M29.17,41.62c.28.32.93.28,1.21-.06.1,0,.11.08.18.11.12.05.33.04.3.19-.03.14-.23.15-.38.2-.42.13-.87.18-1.33.13-.13-.02-.29-.02-.34-.13-.05-.1.03-.17.16-.21.15-.04.06-.16.2-.23Z"/>
        <path d="M35.53,18.72c-.02-.19-.06-.38-.17-.57-.05-.08-.12-.16-.09-.25.03-.07.05-.17.16-.19.11-.03.16.05.22.1.51.38.48,1.17-.05,1.52-.04.03-.08.06-.14.03-.07-.04-.08-.1-.06-.16.05-.16.15-.31.13-.48Z"/>
        <path d="M29.54,36.95c-.13.61-.12.6.32.68.78.14.49-.3.62-.54.1.22.2.43.28.65.04.1-.04.17-.19.18-.51.03-1.01-.01-1.49-.15-.12-.03-.2-.12-.12-.21.17-.19.36-.38.58-.61Z"/>
        <path d="M46.92,27.47c.32-.23.6-.23.84,0,.36.33.77.61,1.2.88.1.06.3.14.14.25-.14.1-.27-.03-.39-.08-.49-.21-.81-.55-1.19-.83-.17-.12-.31-.23-.6-.21Z"/>
        <path d="M42.2,30.23c.34,0,.37.16.37.3.01.45.13.88.26,1.32.02.09.08.18-.09.21-.16.03-.21-.07-.25-.16-.18-.46-.34-.92-.24-1.4.02-.09,0-.17-.05-.27Z"/>
        <path d="M30.23,39.3c.05.01.07.01.07.02.36.5.33.54-.49.55-.23,0-.47,0-.69-.03-.43-.05-.48-.14-.26-.4.05-.06.05-.13.19-.17,0,.31.32.3.62.3.29,0,.56,0,.55-.28Z"/>
        <path d="M32.17,32.93c-.48-.02-.88-.13-1.23-.32-.11-.06-.22-.13-.13-.24.1-.12.25-.1.39-.05.32.13.64.25,1.02.27.16,0,.35.05.31.21-.04.16-.24.11-.36.13Z"/>
        <path d="M48.13,26.19s-.03,0-.08,0c-.23.01-.56.03-.58-.14-.02-.15.32-.21.55-.24.3-.04.6-.02.88.08.07.02.13.06.19.1-.06.05-.11.11-.19.14-.21.09-.45.05-.76.06Z"/>
        <path d="M42.54,26.33c-.51.07-.76-.05-.89-.34-.09-.19-.24-.37-.37-.55-.05-.07-.06-.14.05-.17.13-.04.1.06.14.1.34.31.68.62,1.06.96Z"/>
        <path d="M35.44,20.25c-.61-.38-1.04-.87-1.51-1.34.57.41,1.3.72,1.51,1.34Z"/>
        <path d="M45.67,25.98c.74.08,1.22.49,1.83.73-.66-.18-1.27-.43-1.83-.73Z"/>
        <path d="M30.91,21.9c.03-.09.11-.07.16-.05.48.12.95.25,1.42.38.1.03.25.06.2.15-.06.11-.2.02-.28,0-.5-.15-1-.32-1.5-.48Z"/>
        <path d="M42.82,29.67c-.2-.33-.41-.65-.6-.98-.04-.06-.12-.16.03-.2.14-.03.18.06.2.14.1.35.45.66.37,1.04Z"/>
        <path d="M39.67,16.71c.95-.03,1.88-.05,2.44-.73-.18.63-.79.81-2.44.73Z"/>
        <path d="M26.21,7.36c.08.2.15.4.23.6-1-.24-.77-.19-.23-.6Z"/>
        <path d="M17.11,14.78q-.77,0-.71-.43c.23.14.47.29.71.43Z"/>
        <path d="M27.15,15.8c.41,0,.66.16.93.3.06.03.06.09.01.13-.06.06-.14.05-.22.03-.3-.08-.52-.22-.72-.46Z"/>
        <path d="M31.23,45.81c.19.07.3.24.54.15.21-.08.07-.24.09-.42.22.2.29.39.2.6-.04.08-.15.12-.27.1-.34-.05-.46-.24-.57-.43Z"/>
        <path d="M43.34,34.98c-.16-.19-.29-.34-.24-.54.02-.07.06-.14.17-.15.12,0,.17.06.17.13.01.17.06.35-.11.55Z"/>
        <path d="M52.1,30.56c0,.1-.07.12-.16.1-.06-.01-.14-.04-.17-.07-.14-.14-.37-.24-.31-.44,0-.02.11-.05.13-.04.25.11.37.29.52.45Z"/>
        <path d="M45.98,24.82c-.56-.05-1.13-.11-1.7-.15.59-.1,1.15-.03,1.7.15Z"/>
        <path d="M23.51,21.3c.14.03.42-.05.42.11,0,.17-.28.09-.44.11-.05,0-.11,0-.16,0-.12,0-.29-.01-.29-.12,0-.13.18-.08.29-.1.05,0,.11,0,.18,0Z"/>
        <path d="M39.36,19.44c-.3-.28-.76-.42-1.12-.65.5.11.96.25,1.11.65,0,0,0,0,0,0Z"/>
        <path d="M62.48,29.92c.27-.06.51.04.77.03-.34.38-.4.37-.77-.03Z"/>
        <path d="M52.98,39.47c-.55.1-.56.1-.6-.22,0-.05,0-.1.06-.13.06-.02.1,0,.14.03.13.11.33.17.41.31Z"/>
        <path d="M34.52,23.94c.41.08.76.26,1.18.4-.31.03-.29.02-.5-.08-.22-.11-.47-.19-.71-.28,0,0-.02-.02-.02-.02,0,0,.02,0,.05-.02Z"/>
        <path d="M49.32,21.12c-.29.31-.32.66-.3,1.01-.26-.51-.19-.75.3-1.01Z"/>
        <path d="M43.2,26.03c-.38-.2-.91-.21-1.24-.47.44.12.88.24,1.24.47Z"/>
        <path d="M30.49,43.22c.04.17.17.39-.08.45-.3.07-.35-.18-.49-.37.18.04.23.19.38.16.15-.03.12-.16.19-.24Z"/>
        <path d="M36.45,20.22c.39.08.59.28.68.55-.23-.18-.45-.37-.68-.55Z"/>
        <path d="M30.8,35.35c-.11.23-.16.39-.42.36-.26-.03-.19-.2-.19-.33,0-.03.02-.05.03-.08.02.02.05.04.06.06.08.22.26.17.51-.01Z"/>
        <path d="M49.66,26.8c-.31-.01-.58-.08-.86-.27.42-.03.61.17.86.27Z"/>
        <path d="M38.02,24.76c.11.11.36.18.16.35-.05.04-.13.1-.2.05-.17-.13-.06-.26.04-.39Z"/>
        <path d="M51.25,20.86c-.47.02-.9.15-1.3.32.36-.26.78-.39,1.3-.32Z"/>
        <path d="M34.19,17.52c.21.15.51.25.43.58-.17-.23-.4-.36-.43-.58Z"/>
        <path d="M40.03,27.28c-.18-.23-.35-.45-.53-.68.03-.01.06-.02.09-.03.21.21.38.44.43.71Z"/>
        <path d="M42.27,15.69c.23-.19.17-.38.02-.57.13.1.25.2.39.3-.14.09-.3.16-.41.27Z"/>
        <path d="M30.91,33.53c.12.18.29.26.59.12-.11.17-.26.22-.43.18-.19-.04-.21-.16-.16-.3Z"/>
        <path d="M50.96,20.63c-.26,0-.51,0-.76-.06-.09-.02-.11-.06-.08-.1.04-.08.1-.02.15,0,.21.09.45.13.69.16Z"/>
        <path d="M36.15,22.42c.15.02.18.12.25.19.06.07.16.13.17.26-.34-.07-.25-.32-.41-.44Z"/>
        <path d="M4.75,56.16c-.11-.05-.34.07-.34-.09,0-.12.21-.16.38-.16.16,0,.34.04.32.16-.02.15-.24.04-.37.09Z"/>
        <path d="M9.36,56.3c-.02.2-.12.37-.45.36-.32-.01-.42-.18-.42-.39,0-.2.13-.35.43-.35.33,0,.43.17.44.38Z"/>
        <path d="M14.72,56.33c-.02.19-.14.34-.44.33-.32,0-.43-.17-.42-.38,0-.21.14-.37.46-.35.32.01.41.19.4.4Z"/>
        <path d="M76.72,56.49c-.05.12-.17.17-.34.16-.14,0-.28-.06-.26-.17.02-.13.17-.16.33-.16.15,0,.25.06.27.17Z"/>
        <path d="M76.67,56.06c-.03.11-.13.14-.26.14-.13,0-.25-.03-.25-.14,0-.11.13-.14.26-.14.14,0,.23.04.26.14Z"/>
        <path d="M73.27,56.42c0,.14-.11.23-.3.23-.19,0-.29-.09-.29-.23,0-.13.1-.2.27-.21.2,0,.29.08.31.21Z"/>
        <path d="M75.52,56.14c0,.1-.11.17-.28.17-.17,0-.29-.07-.29-.19,0-.12.12-.19.29-.2.17,0,.28.06.29.22Z"/>
        <path d="M68.5,56.39c0,.15-.07.26-.27.27-.22,0-.31-.11-.31-.25,0-.13.08-.24.27-.25.22,0,.3.11.31.23Z"/>
        <path d="M60.25,56.43c0,.12-.09.23-.29.22-.22,0-.3-.13-.29-.27,0-.13.1-.24.29-.23.22,0,.29.12.28.28Z"/>
        <path d="M63.8,56.4c0,.14-.07.26-.3.25-.2,0-.28-.12-.28-.24,0-.14.08-.26.31-.25.2,0,.27.11.27.24Z"/>
      </g>
    </g>
  </g>
</svg>