<?xml version="1.0" encoding="UTF-8"?>
<svg id="icon" xmlns="http://www.w3.org/2000/svg" viewBox="0 0 422.57 426.78">
  <g fill="#B65DE2">
    <path d="M422.57,160.04c-10.3-1.37-20.62-2.54-30.88-4.14-22.25-3.47-44.46-7.22-66.71-10.69-3.35-.52-6.06-.86-5.33-5.29.7-4.23,3.05-4.1,6.61-3.52,32.08,5.2,64.2,10.17,96.31,15.22v8.42Z"/>
    <path d="M159.27,169.62c4.15-3.24,5.32.84,6.8,3.05,11.67,17.5,23.01,35.23,34.82,52.64,16.78,24.74,33.82,49.3,50.94,73.81,1.26,1.8,3.93,3.31,6.14,3.63,17.03,2.51,34.09,4.83,51.18,6.92,10.15,1.24,16.61,9.6,15.71,21.06-.75,9.59-9.11,17.84-18.1,16.83-24.08-2.7-48.14-5.65-72.14-8.99-6.86-.95-10.19-6.74-12.91-12.71-2.36-5.19-5.2-10.16-8.74-17-1.45,8.41-2.01,14.68-3.74,20.61-1.25,4.29.27,5.7,3.72,7.34,20.46,9.73,40.85,19.6,61.2,29.56,10.8,5.28,14.89,17.16,9.59,27.03-4.69,8.73-15.37,12.62-24.81,8.15-24.9-11.79-49.98-23.31-74.25-36.31-12.03-6.45-19.56-12.82-15.37-30.64,2.66-11.3,4.26-22.86,6.17-34.33.31-1.88.4-4.35-.55-5.82-13.03-20.22-26.25-40.31-39.74-60.91-12.32,7.48-24.33,14.56-36.1,22.02-6.04,3.83-11.86,5.05-19.18,3.75-15.35-2.73-30.91-4.27-46.41-6.11-9.79-1.16-15.45-5.55-17-13.69-2.02-10.63,1.63-22.09,9.96-24.66,6.25-1.93,13.65-.73,20.46-.07,10.65,1.02,21.23,2.85,31.87,4.09,1.9.22,4.27-.27,5.86-1.3,23.14-14.97,46.19-30.08,69.26-45.16,1.79-.93,3.58-1.86,5.37-2.8Z"/>
    <path d="M273.58,67.35c6.58.37,10.32,3.28,12.27,9.27.99,3.06,3.34,5.68,4.3,8.74,1.15,3.67,2.81,7.94,1.95,11.37-4.31,17.03,4.73,28.66,15.79,38.86,4.51,4.16,4.85,6.26,1.2,10.49-20.05,23.24-43.98,40.99-72.59,52.36-4.58,1.82-6.17.79-8.15-3.77-2.55-5.86-6.04-11.77-10.54-16.21-6.75-6.66-13.84-12.44-23.91-15.49-7.68-2.33-14.09-10.74-19.58-17.64-3.46-4.34,1.17-14.99,7.64-19.51,26.07-18.2,52.24-36.24,78.61-54,3.67-2.47,8.65-3.02,13.02-4.45Z"/>
    <path d="M138.82,244.23c6.51,9.99,12.92,19.81,18.98,29.1-23.83,20.19-52.84,26.07-79.68,36.69-8.48,3.35-16.94-2.13-20.42-12.05-3.2-9.12.49-18.29,8.81-21.42,9.36-3.53,18.75-7.02,28.22-10.25,13.94-4.75,27.64-9.87,39.12-19.55,1.19-1,2.84-1.46,4.98-2.52Z"/>
    <path d="M159.27,169.62c-1.79.93-3.58,1.87-5.37,2.8-20.82,9-35.54.49-43.29-8.81-13.03-15.62-9.86-44.1,13.59-53.98,4.93-2.08,7.91-1.6,10.98,3.15,6.32,9.77,13.29,19.12,20.25,29,5.12-3.38,9.68-6.39,14.98-9.88,4.12,15.85-1.35,27.43-11.14,37.72Z"/>
    <path d="M167.87,61.85c10.15,14.51,19.84,28.37,29.95,42.83-14.31,10.04-28.15,19.75-42.75,30-10.1-14.38-19.81-28.2-30.03-42.74,14.44-10.15,28.27-19.86,42.83-30.09Z"/>
    <path d="M124.81,88.94c-4.32-3.62-8.08-5.98-10.71-9.26-1.59-1.98-2.44-5.65-1.83-8.11,3.19-12.81,20.36-24.62,33.47-27.66,11.49-2.67,13.41,7.38,19.9,11.13.49.28-.44,5.31-1.96,6.42-12.96,9.5-26.2,18.6-38.88,27.48Z"/>
    <path d="M201.44,103.51c-3-4.14-5.42-7.49-8.51-11.75,23.59-16.51,46.74-32.72,70.5-49.35,2.75,3.94,5.23,7.48,8.26,11.82-23.47,16.46-46.46,32.59-70.26,49.28Z"/>
    <path d="M47.87,39.24c3.67-5.85,6.61-10.55,10.31-16.45,16.34,13.49,32.2,26.58,48.06,39.66-.46.75-.93,1.5-1.39,2.25-18.69-8.35-37.38-16.7-56.99-25.46Z"/>
    <path d="M62.36,89.04c.57-6.53,1.02-11.69,1.59-18.22,12.5,3.78,23.85,7.21,35.21,10.64,0,.83-.01,1.65-.02,2.48-11.66,1.62-23.31,3.23-36.79,5.1Z"/>
    <path d="M109.98,56.68c-3.22-11.48-6.45-22.96-9.98-35.54,6.18-.41,11.31-.75,17.88-1.19-1.85,12.81-3.57,24.77-5.3,36.73h-2.61Z"/>
    <path d="M357.9,86c-16.75-1.64-32.06-3.14-47.37-4.63-3.48-.34-7.06-.24-10.41-1.08-2-.5-3.64-2.43-5.44-3.71,1.88-.85,3.81-2.55,5.62-2.42,9.53.67,19.02,1.8,28.53,2.76,9.04.92,18.11,1.66,27.11,2.9,1.74.24,3.21,2.45,4.81,3.75-1.24,1.06-2.48,2.13-2.84,2.44Z"/>
    <path d="M390.36,121.65c-19.14-2.11-36.48-3.96-53.78-6.05-1.52-.18-2.84-2-4.25-3.06,1.63-.73,3.32-2.22,4.88-2.08,17.37,1.46,34.74,3.05,52.07,4.95,2.44.27,4.68,2.38,7.01,3.63-2.43,1.07-4.87,2.15-5.93,2.61Z"/>
  </g>
</svg>